<svg width="160" height="207" viewBox="0 0 160 207" fill="none" xmlns="http://www.w3.org/2000/svg">
<g clip-path="url(#clip0_2_530)">
<path fill-rule="evenodd" clip-rule="evenodd" d="M53.8046 44.4698C52.6554 46.1124 51.4371 47.6922 50.1559 49.2005C40.5385 60.5224 28.3621 66.7701 16.4943 66.7701C8.24176 66.7701 1.55176 73.4601 1.55176 81.7127C1.55176 89.9652 8.24176 96.6552 16.4943 96.6552C30.1478 96.6552 42.8355 92.3643 53.8046 85.3595V44.4698ZM53.8046 99.2744C52.6554 100.917 51.4371 102.497 50.1559 104.005C40.5385 115.327 28.3621 121.575 16.4943 121.575C8.24176 121.575 1.55176 128.265 1.55176 136.517C1.55176 144.77 8.24176 151.46 16.4943 151.46C26.5763 151.46 36.1316 149.12 44.8573 145.076C50.4849 136.623 53.8046 126.539 53.8046 116.609V99.2744ZM63.52 132.886C60.848 142.417 55.9627 151.329 49.5598 158.635C39.5509 170.055 26.9466 176.379 15 176.379C6.74749 176.379 0.0574951 183.069 0.0574951 191.322C0.0574951 199.574 6.74749 206.264 15 206.264C37.5163 206.264 57.7856 194.59 72.0345 178.332C74.9392 175.018 77.6399 171.465 80.0996 167.711C89.7491 152.985 95.6897 135.174 95.6897 116.609V15C95.6897 12.0571 94.8389 9.31293 93.3699 6.99996C90.7196 2.82686 86.0568 0.0574951 80.7471 0.0574951C75.5893 0.0574951 71.0418 2.67078 68.3565 6.64551C66.7454 9.03036 65.8046 11.9053 65.8046 15V116.609C65.8046 122.113 65.0034 127.595 63.52 132.886ZM107.69 44.4697V85.3594C118.659 92.3643 131.346 96.6552 145 96.6552C153.253 96.6552 159.943 89.9652 159.943 81.7127C159.943 73.4601 153.253 66.7701 145 66.7701C133.132 66.7701 120.956 60.5224 111.338 49.2005C110.057 47.6922 108.839 46.1123 107.69 44.4697ZM107.69 99.2743V116.609C107.69 124.089 106.844 131.442 105.268 138.554C116.774 146.506 130.33 151.46 145 151.46C153.253 151.46 159.943 144.77 159.943 136.517C159.943 128.265 153.253 121.575 145 121.575C133.132 121.575 120.956 115.327 111.338 104.005C110.057 102.497 108.839 100.917 107.69 99.2743ZM103.153 146.581C99.7272 157.773 94.5044 168.225 87.976 177.461C88.1702 177.694 88.3654 177.926 88.5616 178.157C102.455 194.513 122.405 206.264 145 206.264C153.253 206.264 159.943 199.574 159.943 191.322C159.943 183.069 153.253 176.379 145 176.379C133.132 176.379 120.956 170.132 111.338 158.81C108.203 155.119 105.445 151 103.153 146.581Z" fill="#F5F5F4"/>
</g>
<defs>
<clipPath id="clip0_2_530">
<rect width="160" height="207" fill="white"/>
</clipPath>
</defs>
</svg>
